PathFileType	4	(X/Y/Z)	pose_F01_0-95.trc
DataRate	CameraRate	NumFrames	NumMarkers	Units	OrigDataRate	OrigDataStartFrame	OrigNumFrames
30	30	10	21	m	30	35	95
Frame#	Time	CHip			RHip			RKnee			RAnkle			RBigToe			RSmallToe			RHeel			LHip			LKnee			LAnkle			LBigToe			LSmallToe			LHeel			Neck			Nose			RShoulder			RElbow			RWrist			LShoulder			LElbow			LWrist			
		X1	Y1	Z1	X2	Y2	Z2	X3	Y3	Z3	X4	Y4	Z4	X5	Y5	Z5	X6	Y6	Z6	X7	Y7	Z7	X8	Y8	Z8	X9	Y9	Z9	X10	Y10	Z10	X11	Y11	Z11	X12	Y12	Z12	X13	Y13	Z13	X14	Y14	Z14	X15	Y15	Z15	X16	Y16	Z16	X17	Y17	Z17	X18	Y18	Z18	X19	Y19	Z19	X20	Y20	Z20	X21	Y21	Z21	
35	1.1666666666666667	-0.14818992529555972	1.875594842789597	-0.5130529589338491	-0.16205986615801582	1.871976375031665	-0.4570501514533882	-0.18792671656327933	1.7274119209387386	-0.439692777610228													-0.13410632901637293	1.8787002361327896	-0.5721235771379826	-0.1435330070312315	1.736351680478935	-0.5572966992746188	-0.12721873650422813	1.5874256849048065	-0.5221371305995913	-0.15469282144649338	1.5564938277471698	-0.5626229590333849	-0.13973326266744066	1.561197455165037	-0.5790343180401479	-0.12333083358640334	1.5757019541310535	-0.507320724894358	-0.14975107664941895	2.0318967089488003	-0.5348307076209707	-0.18155596545919683	2.0906219858339736	-0.5931739564963661	-0.1736928653045594	2.028346083779179	-0.4606680118599443	-0.1939389425101841	1.9514097367839054	-0.4046673243638914	-0.2388732883857002	1.9572038393667122	-0.4822427483898038	-0.12415631018858139	2.034412255743867	-0.6197649710014572	-0.08358375872225168	1.956651890926363	-0.6473050361278324	-0.1026393586006263	1.9618583719970044	-0.6829722397834813
36	1.2	-0.14536324681703794	1.8823436655898687	-0.5129241999146875	-0.16426820102200354	1.8790050844112314	-0.45591721923726963	-0.185218906374967	1.733114074346066	-0.4387211442633951													-0.12955764756164473	1.8839330300739032	-0.5655005366763497	-0.13793833774060638	1.7425026105299524	-0.5554949365217317	-0.12564975086320712	1.5900732366538712	-0.5240491785375079	-0.15469608631552093	1.5568353106571042	-0.5625954910064005	-0.13993599676872864	1.5626590360128263	-0.5787720886440757	-0.12227290958494043	1.5830520963672159	-0.5000115884970294	-0.15514675119784482	2.0356319612175713	-0.5450766606485241	-0.18235377219987162	2.096451754617316	-0.5969849970130844	-0.1785843405791286	2.033164204834767	-0.4606045330321009	-0.21047208195680206	1.9576988834035753	-0.4002022480673069	-0.24020424846928284	1.9635419950469695	-0.46343644367417675	-0.12403334623591425	2.0409522761813284	-0.6205347634608296	-0.08389280539369387	1.966989474556282	-0.6512396656883714	-1.5542817232108217	1.8912904315755124	0.8589097581799332
37	1.2333333333333334	-0.14517345728224246	1.8848175791097994	-0.5134833636085281	-0.16235571918336114	1.882925755947473	-0.45902897211769195	-0.17640584750642102	1.7371467863671168	-0.41767985902551885													-0.12438798058591384	1.8849424433419752	-0.5671507534498942	-0.12534479360987938	1.7379398266118409	-0.5513462600583994	-0.12553452434534002	1.589976067934737	-0.5242152341527927	-0.15451210853614072	1.5564080661000579	-0.5624375335757691	-0.13776008098851383	1.5622853068452878	-0.5808775807551508	-0.12170374091593797	1.5828298848150797	-0.5009816295608671	-0.15800391144173032	2.0410866930468496	-0.5467457049816487	-0.18734537828009687	2.0993437993803745	-0.5960120014560158	-0.1861900923463194	2.0371868632334897	-0.4692483751877303	-0.21427211430909027	1.966711871233581	-0.39740267589340234	-0.2415352085528655	1.969880150727227	-0.44463013895854964	-0.12483525542069328	2.0454923251623183	-0.6243748352861994	-0.09533594579133538	1.968938883582312	-0.6430179035698507	-0.09587306168346216	2.015448798856577	-0.734102138454662
38	1.2666666666666666	-0.14747934884052813	1.8858444342139171	-0.5112751079798834	-0.16930858435529395	1.884198875381431	-0.45569608192905636	-0.174525811382379	1.7408532680848599	-0.4110044170110513													-0.13062233241535737	1.887410931946027	-0.5604649331076869	-0.12385842194946271	1.7399371083585464	-0.5447297862336075	-0.12388598990083731	1.592263933200395	-0.5261438044982973	-0.15465060111607992	1.556515256405968	-0.5624725375913485	-0.1399555358411621	1.5623760365060326	-0.578732416525465	-0.11979428754732464	1.5813577788868514	-0.50259435271095	-0.16295496459178013	2.042666799036117	-0.5460188494753958	-0.19707546172260063	2.099637098179236	-0.6016572524211055	-0.19119219626494455	2.045325213173661	-0.47935465519829895	-0.21663646759076755	1.9699686669501368	-0.39697377112658677	-0.24286616863644814	1.9762183064074843	-0.4258238342429226	-0.12902810032552348	2.0439286391410256	-0.6194570050478535	-0.10201216396785	1.9675525225375647	-0.6356350949982952	-0.08786741546855084	2.0223243402033506	-0.7251664881280011
39	1.3	-0.15049136025189874	1.8842689990753336	-0.5032042511777907	-0.16751122811453573	1.8840107393749623	-0.44896162301353065	-0.17533385571326202	1.740832957058966	-0.3869799215443405													-0.13276611731651666	1.8851160407748038	-0.5577044390467666	-0.1239601560410905	1.741628822138389	-0.5445138264040998	-0.12170436382308089	1.5943591167198146	-0.5289097259113575	-0.1549068904005181	1.5552526461238174	-0.561757290508766	-0.14039262566900887	1.5623101191485362	-0.5777469099973609	-0.11761348715481103	1.5837028619588802	-0.5052298610705396	-0.1630516079574971	2.041058142484211	-0.5452244600112892	-0.2001628541829728	2.0996775112825814	-0.602404457527215	-0.1921946772790269	2.0412464503858687	-0.47289293199259935	-0.21359883325279785	1.9670889597320833	-0.3866309551465642	-0.2441971287200308	1.9825564620877416	-0.4070175295272955	-0.13403159642827395	2.0438630488775567	-0.6178209804785093	-0.10562237580133264	1.9672368622808238	-0.6277197692372686	-0.08443590453109062	2.015822664628373	-0.7103404888323066
40	1.3333333333333333	-0.153969041321685	1.8814078484836303	-0.4948146435107793	-0.17062860006348285	1.8822839602514538	-0.44081610243477376	-0.17577529124182323	1.739429476298338	-0.3768446487550174													-0.1342715555435655	1.8821155128101736	-0.5516767913586148	-0.12414561978853729	1.7356740074920505	-0.5306208668636202	-0.12220245319106138	1.59466453440241	-0.527994014157326	-0.15375308488555897	1.5567417913667345	-0.5591493931420468	-0.13951229567182657	1.5650916213141375	-0.5748161421905532	-0.11604124653872148	1.5836783120886133	-0.5068867699784053	-0.16711059434624348	2.038261836267199	-0.5403201156713141	-0.2032981256114052	2.097282407366643	-0.6034547203232185	-0.19323982121048558	2.0371941733966525	-0.4663334440195897	-0.21639566658550402	1.962093964569707	-0.37804204794119095	-0.24552808880361343	1.988894617767999	-0.3882112248116684	-0.13920529543393276	2.041505375662457	-0.6159459517171857	-0.1131959123085878	1.9635748612518074	-0.6143361062958074	-0.08542353362879908	2.0071670573989246	-0.6893761405480041
41	1.3666666666666667	-0.15456155190931914	1.8815428973529162	-0.4888217488999229	-0.16922570355429106	1.879550987339074	-0.4278184161203353	-0.17352871348233853	1.7404577149045408	-0.3704184085226268													-0.13583581827484476	1.8820516304056851	-0.5488809535455682	-0.12488410171279085	1.7353674791171616	-0.5252533224154352	-0.12190854490594157	1.5928548670608809	-0.5282121522440757	-0.15403955833712335	1.5553505696289887	-0.558614182259824	-0.13976960633994034	1.5636707514610075	-0.57426295645109	-0.1157835184635498	1.5819106074364468	-0.5070459745021504	-0.17056823558073075	2.0341201279029666	-0.5324290162776694	-0.2054761619942117	2.0912020594377534	-0.6000546685539014	-0.1953061404754072	2.03177845132241	-0.4545969895421142	-0.21638519974506068	1.9590993571476123	-0.3771382764513175	-0.2468590488871961	1.9952327734482564	-0.3694049200960413	-0.14429860781179835	2.039483887720307	-0.6140825344488773	-0.11799475994165934	1.9627169910842261	-0.6001914669384019	-0.08986468203102407	2.0004352282604967	-0.6833615677501266
42	1.4	-0.1570177301068964	1.8825142923713125	-0.47803417376225427	-0.17253523674529803	1.8803858099265875	-0.4202350090797621	-0.17234368398809924	1.737597079863132	-0.3574753898801835													-0.13836219447376652	1.8828542898394343	-0.5378903886733338	-0.1257450699889563	1.7353594760136997	-0.5198575973636688	-0.12380215341601472	1.5923698605578585	-0.5260581823464591	-0.15664379480512858	1.556269757345094	-0.5601938189680791	-0.1416070396423897	1.5649416310130264	-0.5726820445540379	-0.11534790760444025	1.5798457274622815	-0.5073672772698651	-0.1766533485840934	2.034175792334582	-0.5261849438133678	-0.20768307537588893	2.083300148988409	-0.5958928877959263	-0.20115532335240296	2.031454707062774	-0.4478968045146252	-0.2183420881754376	1.951603216130875	-0.3733977389668412	-0.24819000897077872	2.0015709291285138	-0.35059861538041426	-0.14488785703546056	2.037399853804649	-0.6055554913419757	-0.12387438218845352	1.9578450962642717	-0.5903105091000485	-0.09458298325527843	1.9981994290390885	-0.679190562347794
43	1.4333333333333333	-0.15664688219345296	1.878114946482659	-0.4652142304051077	-0.17486314836066658	1.8763368404856087	-0.4085704082251401	-0.1725291740091267	1.7362088084914942	-0.3478943082595375													-0.13932574656389404	1.878541575459644	-0.5195115583314582	-0.12532666436685683	1.7360934045187162	-0.5162142414705851	-0.12387225393877846	1.5927040072879444	-0.52602936476159	-0.15575282892875786	1.556657561107862	-0.5569899046431123	-0.13953915969935687	1.5650828845729081	-0.5747339294056588	-0.11777149001877478	1.581762880969484	-0.5049073804100177	-0.17789273347539453	2.0329690721846103	-0.5206969730388066	-0.2111111808565728	2.0802972727675852	-0.5888082144792492	-0.20143850114570258	2.0313301923753677	-0.4483312132333226	-0.21906318465231317	1.950971784922348	-0.3675069523228767	-0.2679140505819566	1.9892574807566086	-0.40684533461840716	-0.14876461589639442	2.0362549541932284	-0.5897161853948473	-0.12640344820411095	1.954031399694395	-0.5787563378346806	-1.6565784001335901	1.890709729455994	1.026563770882503
44	1.4666666666666666	-0.15751042336186175	1.875070841759068	-0.45884720551759806	-0.17568498209621924	1.874902851599155	-0.402454189096202	-0.1749037120910879	1.736139936189219	-0.340350614078513													-0.14054780095513483	1.8756806272928186	-0.5133387491395505	-0.12707176811863918	1.736695666368731	-0.5141454692435296	-0.12409294692645825	1.5912628809057598	-0.5254154295228638	-0.15578474274467338	1.5565167189920086	-0.5570453738780706	-0.14157808085683846	1.5649323465802767	-0.5726375723407521	-0.11602904864938694	1.580563538052869	-0.5064681119177994	-0.17903471187446332	2.0303902726395777	-0.5148168196569303	-0.2165241127038008	2.0777120101708983	-0.5786346578064817	-0.20236068299211232	2.028230542310083	-0.43400215892519134	-0.23496252011814722	1.9539426427489	-0.417299532119812	-1.0007263755814237	1.9377775321766175	0.35109943110261294	-0.1529143413317669	2.0351725600840327	-0.5852730585793795	-0.1254965105115588	1.952194649674156	-0.5746226554448153	-1.656371153258757	1.8883711048559961	1.0271662849727257
